HIERARCHY
ROOT Hips
{
    OFFSET 0.000000 0.000000 0.000000
    CHANNELS 6 Xposition Yposition Zposition Zrotation Xrotation Yrotation
    JOINT Spine
    {
        OFFSET -0.000000 7.472806 0.000000
        CHANNELS 3 Zrotation Xrotation Yrotation
        JOINT Spine1
        {
            OFFSET -0.000000 20.861324 0.000000
            CHANNELS 3 Zrotation Xrotation Yrotation
            JOINT Neck
            {
                OFFSET -0.000000 20.775652 1.888696
                CHANNELS 3 Zrotation Xrotation Yrotation
                JOINT Head
                {
                    OFFSET -0.000000 12.758449 -1.822636
                    CHANNELS 3 Zrotation Xrotation Yrotation
                    End Site
                    {
                        OFFSET -0.000000 22.782944 0.000000
                    }
                }
            }
            JOINT LeftShoulder
            {
                OFFSET 3.666378 18.154961 -0.070414
                CHANNELS 3 Zrotation Xrotation Yrotation
                JOINT LeftArm
                {
                    OFFSET 12.961472 0.000000 0.000000
                    CHANNELS 3 Zrotation Xrotation Yrotation
                    JOINT LeftForeArm
                    {
                        OFFSET 24.623642 0.000000 0.000000
                        CHANNELS 3 Zrotation Xrotation Yrotation
                        JOINT LeftHand
                        {
                            OFFSET 23.136553 0.000000 0.000000
                            CHANNELS 3 Zrotation Xrotation Yrotation
                            End Site
                            {
                                OFFSET 13.669766 0.000000 0.000000
                            }
                        }
                    }
                }
            }
            JOINT RightShoulder
            {
                OFFSET -3.623027 18.154961 -0.070414
                CHANNELS 3 Zrotation Xrotation Yrotation
                JOINT RightArm
                {
                    OFFSET -12.961472 0.000000 0.000000
                    CHANNELS 3 Zrotation Xrotation Yrotation
                    JOINT RightForeArm
                    {
                        OFFSET -24.623642 0.000000 0.000000
                        CHANNELS 3 Zrotation Xrotation Yrotation
                        JOINT RightHand
                        {
                            OFFSET -23.136553 0.000000 0.000000
                            CHANNELS 3 Zrotation Xrotation Yrotation
                            End Site
                            {
                                OFFSET -13.669766 0.000000 0.000000
                            }
                        }
                    }
                }
            }
        }
    }
    JOINT LeftUpLeg
    {
        OFFSET 9.113177 0.000000 0.000000
        CHANNELS 3 Zrotation Xrotation Yrotation
        JOINT LeftLeg
        {
            OFFSET -0.000000 -45.736031 0.000000
            CHANNELS 3 Zrotation Xrotation Yrotation
            JOINT LeftFoot
            {
                OFFSET -0.000000 -34.703285 0.000000
                CHANNELS 3 Zrotation Xrotation Yrotation
                JOINT LeftToeBase
                {
                    OFFSET -0.000000 -5.923565 13.669766
                    CHANNELS 3 Zrotation Xrotation Yrotation
                    End Site
                    {
                        OFFSET -0.000000 0.000000 3.645271
                    }
                }
            }
        }
    }
    JOINT RightUpLeg
    {
        OFFSET -9.113177 0.000000 0.000000
        CHANNELS 3 Zrotation Xrotation Yrotation
        JOINT RightLeg
        {
            OFFSET -0.000000 -45.736031 0.000000
            CHANNELS 3 Zrotation Xrotation Yrotation
            JOINT RightFoot
            {
                OFFSET -0.000000 -34.703285 0.000000
                CHANNELS 3 Zrotation Xrotation Yrotation
                JOINT RightToeBase
                {
                    OFFSET -0.000000 -5.923565 13.669766
                    CHANNELS 3 Zrotation Xrotation Yrotation
                    End Site
                    {
                        OFFSET -0.000000 0.000000 3.645271
                    }
                }
            }
        }
    }
}
MOTION
Frames:    10
Frame Time:    0.008333
-3.171929    87.692810    13.006332    0.704391    0.595632    89.888344    2.816930    4.338345    3.234860    -7.433027    -11.860012    2.568432    10.294682    16.406574    -8.498902    -2.664642    4.736943    -9.099744    11.005250    13.611560    -10.514962    -61.516663    49.280243    -16.939720    -0.223882    -11.532077    -18.300190    3.460850    -11.441672    4.254627    -46.062859    -30.342897    -18.155535    2.629042    -33.146965    37.730503    70.710526    -73.032402    74.516304    11.078045    1.427713    14.846989    2.980766    8.144445    2.154185    -5.456629    -3.191721    -1.976327    3.872109    -2.241277    3.771358    0.000000    0.000000    0.000000    -4.299394    9.783895    0.941472    5.947122    -4.966950    2.844681    2.524591    -0.653128    -7.886741    0.000000    0.000000    0.000000    
-3.172702    87.692772    13.005567    0.704781    0.594980    89.885414    2.813024    4.332371    3.235682    -7.428941    -11.855723    2.569668    10.314271    16.409935    -8.498075    -2.709768    4.747401    -9.102829    11.004345    13.599842    -10.522264    -61.504856    49.322662    -16.944107    -0.227877    -11.549085    -18.299454    3.459204    -11.459198    4.261029    -46.054096    -30.335800    -18.154951    2.638545    -33.142895    37.752453    70.564529    -73.020531    74.376671    11.052392    1.491467    14.864656    2.981305    8.145575    2.158199    -5.455643    -3.191976    -1.998018    3.871727    -2.240272    3.784215    0.000000    0.000000    0.000000    -4.304355    9.789372    0.944800    5.957066    -4.982601    2.823705    2.515680    -0.636626    -7.863173    0.000000    0.000000    0.000000    
-3.174183    87.692795    13.004791    0.704915    0.593238    89.880920    2.814570    4.328195    3.230045    -7.432461    -11.849594    2.564030    10.277015    16.410948    -8.498227    -2.664692    4.757131    -9.098182    11.005008    13.600533    -10.503834    -61.490093    49.340218    -16.963423    -0.231232    -11.559813    -18.296354    3.459594    -11.470262    4.267529    -46.035954    -30.327883    -18.156410    2.658688    -33.150826    37.785130    70.361038    -73.003799    74.182053    11.033191    1.508516    14.891490    2.982972    8.148382    2.131503    -5.458101    -3.201735    -1.955973    3.868193    -2.238449    3.778723    0.000000    0.000000    0.000000    -4.301824    9.786012    0.944378    5.953024    -4.974673    2.859146    2.475514    -0.623084    -7.890918    0.000000    0.000000    0.000000    
-3.175373    87.693146    13.004782    0.707034    0.592916    89.872398    2.806616    4.354604    3.257153    -7.431099    -11.899095    2.588371    10.279615    16.433056    -8.526094    -2.653328    4.761347    -9.123763    11.026595    13.617409    -10.563501    -61.486282    49.352108    -16.977163    -0.234067    -11.573739    -18.292654    3.459336    -11.484436    4.274569    -46.059151    -30.262871    -18.200294    2.687813    -33.132980    37.808590    70.258102    -72.995232    74.083611    11.032681    1.483940    14.935036    2.981425    8.162418    2.052276    -5.452370    -3.236881    -1.866176    3.858830    -2.218847    3.775785    0.000000    0.000000    0.000000    -4.303847    9.785696    0.952507    5.956665    -4.975664    2.847114    2.522321    -0.648737    -7.883775    0.000000    0.000000    0.000000    
-3.177491    87.693092    13.004035    0.708131    0.589679    89.872574    2.786436    4.478214    3.357905    -7.412498    -12.126195    2.678459    10.315366    16.508621    -8.641783    -2.670051    4.761612    -9.238245    11.079905    13.693742    -10.807085    -61.507702    49.332043    -16.965332    -0.242735    -11.577542    -18.308104    3.469483    -11.488993    4.283678    -46.214779    -29.997976    -18.357840    2.799581    -33.115040    37.829094    70.599762    -73.023384    74.410355    11.086712    1.357099    14.965410    2.984447    8.159263    2.062954    -5.452000    -3.228031    -1.889666    3.872523    -2.226063    3.782948    0.000000    0.000000    0.000000    -4.296364    9.779624    0.947567    5.945741    -4.964304    2.836067    2.537612    -0.653656    -7.866416    0.000000    0.000000    0.000000    
-3.178770    87.693047    13.003448    0.710713    0.588225    89.873535    2.784917    4.475161    3.354855    -7.410152    -12.117620    2.676067    10.384988    16.542238    -8.646502    -2.808436    4.662910    -9.255906    11.082471    13.685490    -10.797400    -61.526070    49.320026    -16.954638    -0.244842    -11.583644    -18.316401    3.478100    -11.495003    4.287608    -46.203728    -29.978006    -18.366096    2.801721    -33.127968    37.846302    70.904556    -73.047951    74.701889    11.086356    1.365520    14.944310    2.982299    8.151275    2.153666    -5.449575    -3.198964    -1.971439    3.868969    -2.239358    3.776086    0.000000    0.000000    0.000000    -4.298753    9.783278    0.942057    5.954710    -4.969961    2.834342    2.520259    -0.637027    -7.863679    0.000000    0.000000    0.000000    
-3.179552    87.693367    13.003895    0.713397    0.586980    89.868660    2.781903    4.444508    3.336269    -7.408947    -12.061404    2.660424    10.322270    16.501381    -8.621647    -2.695181    4.763002    -9.220489    11.087194    13.645472    -10.736076    -61.558830    49.330559    -16.945862    -0.242072    -11.593343    -18.309221    3.490741    -11.503748    4.289041    -46.149124    -29.993765    -18.344173    2.769094    -33.141724    37.865952    70.904556    -73.047951    74.701889    11.049830    1.437038    14.938370    2.984128    8.153753    2.163440    -5.452845    -3.198277    -1.973527    3.874799    -2.238178    3.769266    0.000000    0.000000    0.000000    -4.296338    9.783737    0.948273    5.948910    -4.967336    2.847766    2.480661    -0.618704    -7.872694    0.000000    0.000000    0.000000    
-3.181881    87.692932    13.003752    0.715603    0.583087    89.869003    2.794616    4.306331    3.229379    -7.416039    -11.808027    2.566502    10.309701    16.443012    -8.510963    -2.726193    4.732720    -9.114990    11.074968    13.428653    -10.457587    -61.753078    49.372032    -16.808573    -0.227579    -11.583937    -18.277670    3.500770    -11.491545    4.291257    -45.939976    -30.199778    -18.185629    2.629197    -33.185402    37.881229    70.460388    -73.011963    74.277069    10.954723    1.575077    14.934896    2.984729    8.156787    2.155332    -5.446733    -3.205765    -1.965599    3.878917    -2.235389    3.769778    0.000000    0.000000    0.000000    -4.294754    9.785731    0.944348    5.953513    -4.968295    2.853336    2.533383    -0.641897    -7.875760    0.000000    0.000000    0.000000    
-3.182661    87.692406    13.003288    0.718591    0.582510    89.867783    2.792600    4.301216    3.224017    -7.408646    -11.801376    2.562151    10.316777    16.444759    -8.506597    -2.766429    4.753201    -9.113822    11.031300    13.583000    -10.468535    -61.553192    49.277748    -16.973509    -0.235806    -11.591354    -18.304228    3.510504    -11.499705    4.299505    -45.938244    -30.178019    -18.179220    2.622700    -33.173260    37.892166    70.146599    -72.985870    73.976990    10.923212    1.536090    14.979696    2.984404    8.169725    2.069752    -5.440813    -3.237628    -1.874598    3.867409    -2.225245    3.767084    0.000000    0.000000    0.000000    -4.293873    9.786319    0.940087    5.951310    -4.964696    2.863347    2.484353    -0.621689    -7.878919    0.000000    0.000000    0.000000    
-3.183907    87.692978    13.002290    0.723895    0.575369    89.872169    2.801886    4.306017    3.222282    -7.419061    -11.803681    2.559631    10.313149    16.441666    -8.515985    -2.750953    4.781741    -9.121675    11.031930    13.599964    -10.463693    -61.526352    49.266270    -17.003662    -0.236983    -11.590625    -18.305111    3.520424    -11.498816    4.299091    -45.923218    -30.149958    -18.191149    2.617940    -33.154560    37.910751    69.997826    -72.973312    73.834740    10.912353    1.490845    15.042653    2.991310    8.162466    2.161640    -5.445215    -3.201820    -1.969415    3.871069    -2.243121    3.771055    0.000000    0.000000    0.000000    -4.284277    9.788794    0.937918    5.946226    -4.961076    2.840748    2.534134    -0.638483    -7.864697    0.000000    0.000000    0.000000    
